<svg xmlns="http://www.w3.org/2000/svg" viewBox="0 0 447.5 88.4"><g fill="#003226"><path d="M109.5 20.4H126c11.8 0 19.4 6.1 19.4 16.4v.1c0 11-8.5 16.8-20.1 16.8h-2.8v13.4h-13V20.4zM125 43.6c4.6 0 7.4-2.4 7.4-6.1v-.1c0-4-2.8-6.1-7.5-6.1h-2.5v12.4h2.6zM146.2 49.2v-.1c0-10.6 7.6-18.9 18.2-18.9 12.5 0 18.2 9.2 18.2 19.8 0 .8 0 1.7-.1 2.6h-24.2c1 3.9 3.9 5.9 7.8 5.9 3 0 5.4-1.1 8-3.7l7 5.8c-3.5 4.4-8.5 7.4-15.7 7.4-11.2 0-19.2-7.5-19.2-18.8zm24.6-3.1c-.5-4-2.8-6.5-6.3-6.5-3.3 0-5.6 2.6-6.3 6.5h12.6zM188.3 55.9V41.2H184V31h4.3v-9.2H201V31h8.4v10.2H201v12.2c0 2.5 1.1 3.6 3.5 3.6 1.7 0 3.3-.5 4.8-1.2v10c-2.3 1.3-5.3 2.1-8.8 2.1-7.7 0-12.2-3.3-12.2-12z"/></g><g fill="#68B403" stroke="#68B403"><path d="M216.7 20.4h18.5c7.2 0 12.1 1.9 15.2 5.1 2.7 2.7 4.1 6.3 4.1 10.9v.1c0 7.2-3.8 11.9-9.6 14.4l11.2 16.3h-15L231.7 53h-2v14.2h-13V20.4zm17.9 22.4c4.4 0 7-2.1 7-5.5v-.1c0-3.7-2.7-5.5-7-5.5h-4.9v11.2h4.9zM256.6 49.2v-.1c0-10.6 7.6-18.9 18.2-18.9 12.5 0 18.2 9.2 18.2 19.8 0 .8 0 1.7-.1 2.6h-24.2c1 3.9 3.9 5.9 7.8 5.9 3 0 5.4-1.1 8-3.7l7 5.8C288 65 283 68 275.8 68c-11.2 0-19.2-7.5-19.2-18.8zm24.6-3.1c-.5-4-2.8-6.5-6.3-6.5-3.3 0-5.6 2.6-6.3 6.5h12.6zM295.5 62.6l4.7-7.7c4.1 2.7 8.7 4.1 12.4 4.1 2.2 0 3.2-.7 3.2-1.9V57c0-1.4-2-2-5.8-3.1-7.2-1.9-12.8-4.3-12.8-11.6v-.1c0-7.7 6.1-12 14.5-12 5.3 0 10.8 1.5 14.9 4.2l-4.3 8c-3.7-2.1-7.8-3.3-10.7-3.3-1.9 0-2.9.7-2.9 1.7v.2c0 1.4 2.1 2.1 5.9 3.2 7.2 2 12.8 4.5 12.8 11.5v.1c0 8-5.9 12.1-14.8 12.1-6 .1-12-1.7-17.1-5.3zM330.5 49.2v-.1c0-10.2 8-18.8 19.4-18.8 7.4 0 12.4 3.2 15.4 8.1l-8.6 6.4C355 42.4 353 41 350 41c-4.1 0-7.1 3.6-7.1 8v.1c0 4.7 2.9 8.2 7.2 8.2 3 0 4.9-1.4 7-3.7l8.5 6.1c-3.3 4.9-8.2 8.3-16.1 8.3-11 0-19-8.5-19-18.8zM369.1 54.7V31h12.7v19.6c0 3.9 2.1 6.1 5.1 6.1 3 0 5.3-2.1 5.3-6.1V31h12.7v36.2h-12.7v-4.9c-2.3 3-5.7 5.7-10.8 5.7-7.7 0-12.3-5.1-12.3-13.3zM408.7 49.2v-.1c0-10.6 7.6-18.9 18.2-18.9 12.5 0 18.2 9.2 18.2 19.8 0 .8 0 1.7-.1 2.6h-24c1 3.9 3.9 5.9 7.8 5.9 3 0 5.4-1.1 8-3.7l7 5.8c-3.5 4.4-8.5 7.4-15.7 7.4-11.3 0-19.4-7.5-19.4-18.8zm24.6-3.1c-.5-4-2.8-6.5-6.3-6.5-3.3 0-5.6 2.6-6.3 6.5h12.6z"/></g><g><path fill="#68B403" stroke="#68B403" d="M83.4 44.2c0 10.3-4 20-11.3 27.3-7.3 7.3-17 11.3-27.3 11.3s-20-4-27.3-11.3c-7.3-7.3-11.3-17-11.3-27.3s4-20 11.3-27.3c7.3-7.3 17-11.3 27.3-11.3s20 4 27.3 11.3c7.3 7.3 11.3 17 11.3 27.3z"/><path fill="#003226" d="M44.8 1C20.9 1 1.6 20.4 1.6 44.2c0 23.8 19.3 43.2 43.2 43.2C68.6 87.4 88 68.1 88 44.2 87.9 20.4 68.6 1 44.8 1zm0 81.8c-10.3 0-20-4-27.3-11.3-7.3-7.3-11.3-17-11.3-27.3s4-20 11.3-27.3c7.3-7.3 17-11.3 27.3-11.3s20 4 27.3 11.3c7.3 7.3 11.3 17 11.3 27.3s-4 20-11.3 27.3c-7.3 7.3-17 11.3-27.3 11.3z"/><g><path fill="#FFF" d="M60.5 60c1.7 5.4-.7 7-11.4 9.1h-.2c-10.7 1.6-13.5.9-13.8-4.7-.2-2.9-3-6.8-5-9.8-.5-.7-.9-1.4-1.2-2-.2-.3-.3-.6-.4-.9-.9-2-1.3-3.8-1.4-5.5 2.8-5.8 6.1-17.7 4.1-20.3 3.1-2 11.7-5.5 15.4-5.5-.9.4-1.4 1-1.4 1.8.3 4.1 4.3 9.2 6.3 12.7 2.6 4.5-2.3 4.7-1.4 9.9.9 5.1 6.3 5 11.6 4.1-.7 3.7-2.1 8.4-1.2 11.1z"/><path fill-rule="evenodd" clip-rule="evenodd" fill="#003226" d="M27.1 46.3c-.7 1.4-1.3 2.4-1.9 2.9-.4-.7-.7-1.7-1.4-2.2-.3 1.1-.7 2.3-1 3.4-3.2-3.7-13.1-9.8-9.3-16.4 1.7-2.9 4.8-4.9 7.6-6.6 3.7-2.3 5.6-3 9.5-1.9.3.1.5.2.7.5 1.8 2.7-1.4 14.5-4.2 20.3zM65.2 40.9c-.8-.5-1.1-2.4-1.5-3.1-.2 2.9-.2 5.8.2 8.7l-1.5-.6c0 .3-.6 3.2-.6 3.2-5.3.9-10.7 1.1-11.6-4.1-.9-5.2 4-5.4 1.4-9.9-2-3.5-6-8.7-6.3-12.7-.1-.8.5-1.4 1.4-1.8 2.7-1.3 8.1-1 11.5-.6 3.4.4 10.5 1.5 12.5 5.7 1.4 2.7-4.1 16.1-5.5 15.2zM31.5 49.6c1.7 3.1 6.5 2.2 7.3-1.3-2-3.9-7-2.3-7.3 1.3zm5.1-1.2c-.4 0-.7-.3-.7-.7 0-.4.3-.7.7-.8.4 0 .7.3.8.7-.1.4-.4.7-.8.8zM43.4 63.5c2.1 5.8 8.9 4.4 8.9-1.4 0-4.6-10.4-2.8-8.9 1.4zm7.7-2.2c0 .4-.4.7-.8.7s-.7-.4-.7-.8.4-.7.8-.7.7.4.7.8z"/><path fill="#FFF" d="M56.1 69.4c.1.5-2 3.4-6.3 4.1h-.1c-4.3.8-7.2-1.2-7.3-1.7-.1-.3.1-.6.4-.6.5-.1 3 .7 6.5.1s5.6-2.3 6.1-2.3c.4-.1.6.1.7.4z"/></g></g></svg>